<?xml version="1.0" encoding="UTF-8"?>
<svg width="50px" height="50px" viewBox="0 0 50 50" version="1.1" xmlns="http://www.w3.org/2000/svg" xmlns:xlink="http://www.w3.org/1999/xlink">
    <!-- Generator: Sketch 55.2 (78181) - https://sketchapp.com -->
    <title>11</title>
    <desc>Created with Sketch.</desc>
    <g id="11" stroke="none" stroke-width="1" fill="none" fill-rule="evenodd">
        <g id="Group-64-Copy-4" transform="translate(-9.000000, -7.000000)">
            <g id="Group-56">
                <g id="Group-5" transform="translate(0.000000, -0.000000)">
                    <g id="Group-8">
                        <path d="M59,32 C59,40.2367188 55.0163086,47.5428711 48.8713867,52.0979492 C46.2989258,54.0041016 43.3479492,55.4285156 40.1519531,56.2367188 C38.1836914,56.7357422 36.1234375,57 34,57 C31.8765625,57 29.815332,56.7357422 27.8469727,56.2367188 C24.6510742,55.4285156 21.7,54.0041016 19.1275391,52.096875 C12.9826172,47.5417969 9,40.2357422 9,32 C9,18.1928711 20.1928711,7 34,7 C47.8071289,7 59,18.1928711 59,32 Z" id="Path" fill="#FA6D6D" fill-rule="nonzero"></path>
                        <polygon id="Path-15-Copy-2" fill="#FFFFFF" opacity="0.068921" points="59 53.6363636 0 2.27373675e-13 0 59 56.2358152 59"></polygon>
                    </g>
                </g>
                <g id="Group-5" transform="translate(31.090909, 36.465116)" fill="#20222A" fill-rule="nonzero">
                    <g id="Group-8">
                        <path d="M2.41022043,1.58243355 C2.41022043,1.98263957 2.23227967,2.3376312 1.95780256,2.55895351 C1.84289766,2.65156972 1.71108549,2.72077921 1.56832896,2.76004821 C1.48041201,2.78429478 1.38838602,2.79713455 1.29353779,2.79713455 C1.19868956,2.79713455 1.10661994,2.78429478 1.01869863,2.76004821 C0.875946463,2.72077921 0.744129929,2.65156972 0.62922503,2.55890132 C0.354747927,2.337579 0.176855148,1.98259212 0.176855148,1.58243355 C0.176855148,0.911572225 0.676810541,0.367732558 1.29353779,0.367732558 C1.91026503,0.367732558 2.41022043,0.911572225 2.41022043,1.58243355 Z" id="Path"></path>
                    </g>
                </g>
            </g>
        </g>
        <text id="WF-Copy" font-family="SegoeUI-Bold, Segoe UI" font-size="18" font-weight="bold" fill="#FFFFFF">
            <tspan x="12" y="32">WF</tspan>
        </text>
    </g>
</svg>