<?xml version="1.0" encoding="UTF-8"?>
<svg width="50px" height="50px" viewBox="0 0 50 50" version="1.1" xmlns="http://www.w3.org/2000/svg" xmlns:xlink="http://www.w3.org/1999/xlink">
    <!-- Generator: Sketch 55.2 (78181) - https://sketchapp.com -->
    <title>8</title>
    <desc>Created with Sketch.</desc>
    <defs>
        <circle id="path-1" cx="25" cy="25" r="25"></circle>
    </defs>
    <g id="8" stroke="none" stroke-width="1" fill="none" fill-rule="evenodd">
        <g id="Group-71-Copy-5">
            <g id="Path-15-Copy-3">
                <mask id="mask-2" fill="white">
                    <use xlink:href="#path-1"></use>
                </mask>
                <use id="Mask" fill="#005BAB" xlink:href="#path-1"></use>
                <polygon id="Path-15-Copy-2" fill="#FFFFFF" opacity="0.068921" mask="url(#mask-2)" points="48.4375 45.4545455 -1.5625 0 -1.5625 50 46.0949705 50"></polygon>
            </g>
            <g id="Group-69" transform="translate(8.250000, 13.825359)" fill="#FFFFFF" fill-rule="nonzero">
                <g id="Group-6">
                    <path d="M0.923173506,12.5 C0.668121292,12.5 0.450498483,12.4055641 0.270298549,12.2166896 C0.0900986154,12.027815 -1.42108547e-14,11.8017412 -1.42108547e-14,11.5384615 C-1.42108547e-14,11.2751818 0.0900986154,11.0476772 0.270298549,10.8559409 C0.450498483,10.6642046 0.668121292,10.5683379 0.923173506,10.5683379 C1.18377033,10.5683379 1.40555154,10.6642046 1.58852378,10.8559409 C1.77149602,11.0476772 1.86298077,11.2751818 1.86298077,11.5384615 C1.86298077,11.8017412 1.77149602,12.027815 1.58852378,12.2166896 C1.40555154,12.4055641 1.18377033,12.5 0.923173506,12.5 Z M13.9390883,12.3111264 L12.2258113,12.3111264 L6.08795501,2.49828297 C5.93270584,2.25217368 5.80518165,1.99462131 5.70537861,1.72561813 L5.65547734,1.72561813 C5.69983424,1.98889784 5.72201236,2.55265136 5.72201236,3.4168956 L5.72201236,12.3111264 L4.32477679,12.3111264 L4.32477679,0 L6.13785628,0 L12.109375,9.65831044 C12.3588826,10.0589535 12.519674,10.333676 12.5917539,10.4824863 L12.6250215,10.4824863 C12.5695753,10.127631 12.5418527,9.52381379 12.5418527,8.67101648 L12.5418527,0 L13.9390883,0 L13.9390883,12.3111264 Z M23.3870622,12.3111264 L17.0662345,12.3111264 L17.0662345,0 L23.120922,0 L23.120922,1.30494505 L18.4634701,1.30494505 L18.4634701,5.40006868 L22.7716132,5.40006868 L22.7716132,6.69642857 L18.4634701,6.69642857 L18.4634701,11.0061813 L23.3870622,11.0061813 L23.3870622,12.3111264 Z M32.7352335,1.30494505 L29.2920458,1.30494505 L29.2920458,12.3111264 L27.8948103,12.3111264 L27.8948103,1.30494505 L24.4599395,1.30494505 L24.4599395,0 L32.7352335,0 L32.7352335,1.30494505 Z" id=".NET-Copy-2"></path>
                    <path d="M15.9326172,16.5349927 L14.152832,22.8367505 L13.2871094,22.8367505 L11.9907227,18.2312817 C11.9350583,18.0349927 11.9013672,17.8211266 11.8896484,17.5896802 L11.8720703,17.5896802 C11.8544921,17.8064781 11.8164065,18.0174135 11.7578125,18.2224927 L10.4526367,22.8367505 L9.59570312,22.8367505 L7.75,16.5349927 L8.56298828,16.5349927 L9.90332031,21.368977 C9.95898465,21.5711265 9.99414055,21.7820619 10.0087891,22.0017895 L10.0307617,22.0017895 C10.0454102,21.8465153 10.0908199,21.6355799 10.1669922,21.368977 L11.5600586,16.5349927 L12.2675781,16.5349927 L13.6035156,21.4041333 C13.6503909,21.5711263 13.6855468,21.7674134 13.7089844,21.9930005 L13.7265625,21.9930005 C13.7382813,21.840656 13.7778317,21.6385096 13.8452148,21.3865552 L15.1328125,16.5349927 L15.9326172,16.5349927 Z M20.3886719,20.7669263 L17.2114258,20.7669263 C17.2231446,21.2679053 17.3579089,21.6546202 17.6157227,21.9270825 C17.8735364,22.1995448 18.2280251,22.3357739 18.6791992,22.3357739 C19.1860377,22.3357739 19.6518533,22.1687834 20.0766602,21.8347974 L20.0766602,22.5115552 C19.6811504,22.798666 19.1582064,22.9422192 18.5078125,22.9422192 C17.8720671,22.9422192 17.3725604,22.7378756 17.0092773,22.3291821 C16.6459943,21.9204887 16.4643555,21.3455433 16.4643555,20.6043286 C16.4643555,19.9041298 16.6628398,19.3335789 17.0598145,18.8926587 C17.4567891,18.4517385 17.9497041,18.2312817 18.5385742,18.2312817 C19.1274444,18.2312817 19.5830062,18.4217095 19.9052734,18.8025708 C20.2275407,19.1834321 20.3886719,19.7122354 20.3886719,20.3889966 L20.3886719,20.7669263 Z M19.6503906,20.1560864 C19.6474609,19.7400687 19.5471201,19.4163415 19.3493652,19.184895 C19.1516103,18.9534485 18.8769549,18.837727 18.5253906,18.837727 C18.1855452,18.837727 17.8969738,18.9593079 17.659668,19.2024731 C17.4223621,19.4456384 17.2758792,19.7635063 17.2202148,20.1560864 L19.6503906,20.1560864 Z M22.2167969,22.1863599 L22.1992188,22.1863599 L22.1992188,22.8367505 L21.4785156,22.8367505 L21.4785156,16.1746411 L22.1992188,16.1746411 L22.1992188,19.1277661 L22.2167969,19.1277661 C22.5712908,18.5301069 23.0898403,18.2312817 23.7724609,18.2312817 C24.3496123,18.2312817 24.801512,18.4326957 25.1281738,18.8355298 C25.4548356,19.2383638 25.6181641,19.7781534 25.6181641,20.4549145 C25.6181641,21.207848 25.4350604,21.8106252 25.0688477,22.2632642 C24.7026349,22.7159031 24.2016633,22.9422192 23.565918,22.9422192 C22.9711884,22.9422192 22.5214859,22.6902686 22.2167969,22.1863599 Z M22.1992188,20.3714185 L22.1992188,20.9998364 C22.1992188,21.3719086 22.3200672,21.6875793 22.5617676,21.9468579 C22.803468,22.2061365 23.1103497,22.3357739 23.4824219,22.3357739 C23.9189475,22.3357739 24.2609851,22.1687834 24.5085449,21.8347974 C24.7561048,21.5008113 24.8798828,21.0364605 24.8798828,20.441731 C24.8798828,19.9407519 24.7641613,19.5481777 24.5327148,19.2639966 C24.3012684,18.9798155 23.9877949,18.837727 23.5922852,18.837727 C23.1733377,18.837727 22.8364271,18.9834775 22.581543,19.2749829 C22.3266589,19.5664883 22.1992188,19.9319631 22.1992188,20.3714185 Z" id="Web"></path>
                </g>
            </g>
        </g>
    </g>
</svg>