<?xml version="1.0" encoding="utf-8"?>
<!-- Generator: Adobe Illustrator 23.1.0, SVG Export Plug-In . SVG Version: 6.00 Build 0)  -->
<svg version="1.1" id="Layer_1" xmlns="http://www.w3.org/2000/svg" xmlns:xlink="http://www.w3.org/1999/xlink" x="0px" y="0px"
	 viewBox="8 0 50 42" style="enable-background:new 0 0 64 42;" xml:space="preserve">
<style type="text/css">
	.st0{fill:#B3B3B3;}
	.st1{fill:#A6120D;}
	.st2{fill:#DD1B16;}
	.st3{fill:#F2F2F2;}
	.st4{fill:#FFFFFF;}
	.st5{fill:#5C2D91;}
</style>
<title>Artboard 7 Copy 8</title>
<desc>Created with Sketch.</desc>
<g id="Artboard-7-Copy-8">
	<g id="angular-icon" transform="translate(17.000000, 5.000000)">
		<polygon id="Shape" class="st0" points="-67,0 -82.4,5.3 -79.9,25 -67,31.9 -54,24.9 -51.6,5.2 		"/>
		<polygon class="st1" points="-53.5,6.5 -67,1.9 -67,30.1 -55.7,23.8 -53.5,6.5 		"/>
		<polygon class="st2" points="-80.4,6.6 -78.4,23.9 -67,30.1 -67,1.9 -80.4,6.6 		"/>
		<path class="st3" d="M-63.1,17l-3.9,1.8h-4.1l-1.9,4.7l-3.6,0.1L-67,2.8L-63.1,17L-63.1,17z M-63.5,16.1L-67,9.4l-2.9,6.6h2.8
			L-63.5,16.1L-63.5,16.1z"/>
		<polygon class="st0" points="-67,2.8 -66.9,9.4 -63.8,16 -66.9,16 -67,18.7 -62.6,18.7 -60.6,23.4 -57.3,23.5 		"/>
	</g>
</g>
<image style="overflow:visible;" width="1000" height="1000" xlink:href="../BrandBlazor_nohalo_1000x.png"  transform="matrix(0.75 0 0 0.75 -1444.4304 -344.9897)">
</image>
<g>
	<path class="st4" d="M39.8,23.8c0,2.9-2.3,5.3-2.3,5.3s6.3-1.4,4.2,1.9c-0.3,0.4-6.4,3.3-6.8,3.5c-1.9,1.2-4.6,1-7.1,1
		c-6.5,0-11.9-5.3-11.9-11.9s5.3-11.9,11.9-11.9S39.8,17.2,39.8,23.8z"/>
	<g>
		<path class="st5" d="M14.3,23.1c0-0.2,0.1-0.4,0.1-0.6c0.3-3,1.5-5.7,3.6-7.9c1.9-2,4.2-3.3,6.8-3.8c0.9-0.2,1.9-0.3,2.8-0.3
			c1.3,0,2.6,0,3.9,0c3.1,0,5.7-1.1,8-3.1c0.2-0.2,0.4-0.4,0.6-0.6c0.1-0.1,0.2-0.1,0.2-0.1c0.1,0,0.1,0.2,0.1,0.2
			c-0.1,1.3-0.5,2.6-1.1,3.8c-0.2,0.4-0.5,0.8-0.7,1.3c0,0.1,0,0.2,0,0.2c0,0,0.1,0.1,0.2,0.1c2-0.5,3.8-1.3,5.4-2.7
			c1.1-1,2-2.2,2.8-3.5c0.2-0.3,0.3-0.6,0.5-0.9c0-0.1,0.1-0.2,0.2-0.2c0.1,0,0.2,0.1,0.2,0.2c0.8,1.5,1.3,3.1,1.5,4.8
			c0.2,1.4,0.2,2.7,0.1,4.1c-0.4,4.8-2.3,8.8-5.6,12.2c-2.7,2.8-5.9,4.6-9.6,5.6c-1.2,0.3-2.4,0.5-3.6,0.6c-1,0-2,0.1-3,0
			c-3.7-0.2-7.1-2.6-8.3-6.1c-0.7-2.1-0.6-4.2,0.3-6.2c1.2-2.6,3.3-4.3,6.1-5c2.9-0.6,5.5,0.1,7.8,2.1c1.5,1.4,2.5,3.1,2.8,5.2
			c0.1,0.8,0.2,1.6-0.1,2.4c-0.2,0.6-0.5,1.1-1,1.3c-1,0.5-2.3-0.1-2.6-1.2c-0.1-0.3-0.1-0.7-0.1-1c0-1.2,0-2.4,0-3.6
			c0-1.1-0.7-2-1.8-2.2c-0.2,0-0.3-0.1-0.5-0.1c-1,0-2.1,0-3.1,0c-2.4,0-4.6,1.8-5.2,4.1c-0.7,3,1.2,6,4.2,6.6c2,0.4,3.6-0.2,5-1.7
			c0,0,0.1-0.1,0.1-0.1c0.2,0.3,0.5,0.5,0.7,0.8c0.6,0.5,1.3,0.8,2.1,0.9c1.1,0.1,2.1-0.2,2.9-0.9c0.8-0.7,1.3-1.6,1.5-2.7
			c0.2-0.9,0.1-1.7,0-2.6c-0.2-1.2-0.4-2.3-1-3.4c-1.6-3.3-4.2-5.5-7.9-6.2c-3.6-0.7-6.9,0.3-9.6,2.8c-1.7,1.6-2.8,3.6-3.2,5.8
			c-0.7,3.5,0.2,6.7,2.6,9.4c1.7,1.9,3.9,3.1,6.4,3.5c1.4,0.3,2.8,0.3,4.2,0.2c3.1-0.1,6.1-0.9,8.9-2.2c0.9-0.4,1.7-0.9,2.6-1.4
			c0.1,0,0.1-0.1,0.2-0.1c0,0,0,0,0,0c0,0.1-0.1,0.1-0.1,0.2c-2.4,2.5-5.2,4.2-8.6,5.1c-1.1,0.3-2.3,0.5-3.5,0.6
			C29,37,28.3,37,27.7,37c-3.4,0-6.5-1-9-3.3c-2-1.8-3.3-4-3.9-6.7c-0.2-0.8-0.3-1.6-0.4-2.5c0-0.1,0-0.1,0-0.1
			C14.3,24,14.3,23.5,14.3,23.1z"/>
		<path class="st5" d="M30.4,22.3c0,0.5,0,1,0,1.5c0,1.4-1.1,2.7-2.5,3c-1.8,0.3-3.4-0.7-3.8-2.5c-0.4-1.8,0.9-3.6,2.7-3.8
			c0.3,0,0.7,0,1.1,0c0.8,0,1.5,0,2.3,0c0.2,0,0.3,0.1,0.3,0.3C30.4,21.2,30.4,21.7,30.4,22.3C30.4,22.3,30.4,22.3,30.4,22.3z"/>
	</g>
</g>
</svg>
