<?xml version="1.0" encoding="UTF-8"?>
<svg width="50px" height="50px" viewBox="0 0 50 50" version="1.1" xmlns="http://www.w3.org/2000/svg" xmlns:xlink="http://www.w3.org/1999/xlink">
    <!-- Generator: Sketch 55.2 (78181) - https://sketchapp.com -->
    <title>4</title>
    <desc>Created with Sketch.</desc>
    <defs>
        <circle id="path-1" cx="25" cy="25" r="25"></circle>
    </defs>
    <g id="4" stroke="none" stroke-width="1" fill="none" fill-rule="evenodd">
        <g id="Group-71-Copy-6">
            <g id="Path-15-Copy-3">
                <mask id="mask-2" fill="white">
                    <use xlink:href="#path-1"></use>
                </mask>
                <use id="Mask" fill="#681B7B" xlink:href="#path-1"></use>
                <polygon id="Path-15-Copy-2" fill="#FFFFFF" opacity="0.068921" mask="url(#mask-2)" points="48.4375 45.4545455 -1.5625 0 -1.5625 50 46.0949705 50"></polygon>
            </g>
            <g id="Group-69" transform="translate(8.250000, 15.825359)" fill="#FFFFFF" fill-rule="nonzero">
                <path d="M0.923173506,12.5 C0.668121292,12.5 0.450498483,12.4055641 0.270298549,12.2166896 C0.0900986154,12.027815 0,11.8017412 0,11.5384615 C0,11.2751818 0.0900986154,11.0476772 0.270298549,10.8559409 C0.450498483,10.6642046 0.668121292,10.5683379 0.923173506,10.5683379 C1.18377033,10.5683379 1.40555154,10.6642046 1.58852378,10.8559409 C1.77149602,11.0476772 1.86298077,11.2751818 1.86298077,11.5384615 C1.86298077,11.8017412 1.77149602,12.027815 1.58852378,12.2166896 C1.40555154,12.4055641 1.18377033,12.5 0.923173506,12.5 Z M13.9390883,12.3111264 L12.2258113,12.3111264 L6.08795501,2.49828297 C5.93270584,2.25217368 5.80518165,1.99462131 5.70537861,1.72561813 L5.65547734,1.72561813 C5.69983424,1.98889784 5.72201236,2.55265136 5.72201236,3.4168956 L5.72201236,12.3111264 L4.32477679,12.3111264 L4.32477679,0 L6.13785628,0 L12.109375,9.65831044 C12.3588826,10.0589535 12.519674,10.333676 12.5917539,10.4824863 L12.6250215,10.4824863 C12.5695753,10.127631 12.5418527,9.52381379 12.5418527,8.67101648 L12.5418527,0 L13.9390883,0 L13.9390883,12.3111264 Z M23.3870622,12.3111264 L17.0662345,12.3111264 L17.0662345,0 L23.120922,0 L23.120922,1.30494505 L18.4634701,1.30494505 L18.4634701,5.40006868 L22.7716132,5.40006868 L22.7716132,6.69642857 L18.4634701,6.69642857 L18.4634701,11.0061813 L23.3870622,11.0061813 L23.3870622,12.3111264 Z M32.7352335,1.30494505 L29.2920458,1.30494505 L29.2920458,12.3111264 L27.8948103,12.3111264 L27.8948103,1.30494505 L24.4599395,1.30494505 L24.4599395,0 L32.7352335,0 L32.7352335,1.30494505 Z" id=".NET-Copy-2"></path>
            </g>
        </g>
        <text id="blazor-copy" font-family="SegoeUI, Segoe UI" font-size="8" font-weight="normal" fill="#FFFFFF">
            <tspan x="14" y="37">blazor</tspan>
        </text>
    </g>
</svg>