<?xml version="1.0" encoding="UTF-8"?>
<svg width="50px" height="50px" viewBox="0 0 50 50" version="1.1" xmlns="http://www.w3.org/2000/svg" xmlns:xlink="http://www.w3.org/1999/xlink">
    <!-- Generator: Sketch 55.2 (78181) - https://sketchapp.com -->
    <title>7</title>
    <desc>Created with Sketch.</desc>
    <g id="7" stroke="none" stroke-width="1" fill="none" fill-rule="evenodd">
        <g id="Group-66-Copy-2" fill-rule="nonzero">
            <g id="Group-4">
                <path d="M50,25 C50,28.2571289 49.3775391,31.3683594 48.2438477,34.2224609 C47.6376953,35.7490234 46.8856445,37.2020508 46.0040039,38.5632812 C44.9060547,40.2612305 43.6070312,41.8173828 42.1417969,43.1969727 C41.2835938,44.0061523 40.3693359,44.7541016 39.4040039,45.4357422 C35.3326172,48.3112305 30.3642578,50 25,50 C19.6357422,50 14.6673828,48.3112305 10.5958984,45.4357422 C9.38769531,44.5827148 8.25917969,43.6265625 7.2234375,42.5775391 C2.75712891,38.062207 0,31.8520508 0,25 C0,18.1479492 2.75712891,11.937793 7.2234375,7.42246094 C8.32041016,6.31230469 9.52138672,5.30507812 10.8101563,4.41533203 C14.8408203,1.63056641 19.7295898,0 25,0 C30.2704102,0 35.1591797,1.63056641 39.1898437,4.41533203 C40.1745117,5.09394531 41.1072266,5.84287109 41.9816406,6.65410156 C43.5132813,8.07041016 44.8663086,9.67753906 46.0041016,11.4367187 C46.8857422,12.7979492 47.637793,14.2509766 48.2439453,15.7775391 C49.3775391,18.6316406 50,21.7428711 50,25 Z" id="Path" fill="#F7E018"></path>
                <g id="Group" transform="translate(12.500000, 15.000000)" fill="#000000">
                    <path d="M22.8287338,5.19594465 C22.1454541,3.16896711 19.3436717,3.16896711 18.7971439,4.84644209 C18.2505202,6.52391706 20.0955191,7.50238691 22.9654856,8.48105294 C25.8354521,9.45962088 27.612171,12.0458221 27.2704832,14.3522644 C26.9287954,16.6587067 25.972108,19.6643502 20.300551,19.6643502 C16.7558399,19.6643502 14.7858846,17.3981258 13.8068527,15.6985801 L17.0205208,13.723199 C17.0205208,13.723199 18.1138642,16.0996791 20.1637992,16.0996791 C22.21383,16.0996791 23.0337656,15.4007721 23.0337656,13.7931388 C23.0337656,11.836101 16.4054253,11.137194 15.3804578,7.78214591 C14.3554903,4.42709787 15.7221456,-0.325764247 20.5053911,0.0236402238 C23.4950393,0.242091587 25.1766266,1.74368722 26.0174682,2.83918108 L22.8287338,5.19594465 Z" id="Path"></path>
                    <path d="M7.93218183,0.37324088 C7.93218183,0.37324088 7.93218183,12.1856036 7.93218183,13.7932369 C7.93218183,15.4007721 6.56552657,16.2396567 5.19887131,15.9599958 C3.83221605,15.680433 3.21721638,14.002958 3.21721638,14.002958 L0.0739380539,16.169717 C0.0739380539,16.169717 0.757217735,19.3848855 5.06221537,19.6645464 C9.36721301,19.9441092 11.8271158,17.2880663 11.8271158,15.0513676 C11.8271158,12.8146689 11.8271158,0.37324088 11.8271158,0.37324088 L7.93218183,0.37324088 L7.93218183,0.37324088 Z" id="Path"></path>
                </g>
            </g>
        </g>
    </g>
</svg>