<?xml version="1.0" encoding="UTF-8"?>
<svg width="50px" height="50px" viewBox="0 0 50 50" version="1.1" xmlns="http://www.w3.org/2000/svg" xmlns:xlink="http://www.w3.org/1999/xlink">
    <!-- Generator: Sketch 55.2 (78181) - https://sketchapp.com -->
    <title>1</title>
    <desc>Created with Sketch.</desc>
    <defs>
        <circle id="path-1" cx="25" cy="25" r="25"></circle>
    </defs>
    <g id="1" stroke="none" stroke-width="1" fill="none" fill-rule="evenodd">
        <g id="Group-70-Copy-5" transform="translate(0.000000, -0.000000)">
            <ellipse id="Oval-Copy-35" fill="#005BAB" cx="24.9646185" cy="24.9634772" rx="24.1833685" ry="24.9634772"></ellipse>
            <g id="Path-15-Copy-2">
                <mask id="mask-2" fill="white">
                    <use xlink:href="#path-1"></use>
                </mask>
                <use id="Mask" fill="#5C2C91" xlink:href="#path-1"></use>
                <polygon fill="#FFFFFF" opacity="0.068921" mask="url(#mask-2)" points="48.4375 45.4545455 -1.5625 0 -1.5625 50 46.0949705 50"></polygon>
            </g>
            <path d="M7.11975098,28.3253589 C6.83898785,28.3253589 6.59942726,28.230923 6.40106201,28.0420484 C6.20269676,27.8531739 6.10351562,27.6271001 6.10351562,27.3638204 C6.10351562,27.1005407 6.20269676,26.8730361 6.40106201,26.6812998 C6.59942726,26.4895635 6.83898785,26.3936968 7.11975098,26.3936968 C7.40661765,26.3936968 7.65075583,26.4895635 7.85217285,26.6812998 C8.05358987,26.8730361 8.15429688,27.1005407 8.15429688,27.3638204 C8.15429688,27.6271001 8.05358987,27.8531739 7.85217285,28.0420484 C7.65075583,28.230923 7.40661765,28.3253589 7.11975098,28.3253589 Z M21.4477539,28.1364853 L19.5617676,28.1364853 L12.8051758,18.3236419 C12.6342765,18.0775326 12.493897,17.8199802 12.3840332,17.550977 L12.3291016,17.550977 C12.3779299,17.8142567 12.4023438,18.3780102 12.4023438,19.2422545 L12.4023438,28.1364853 L10.8642578,28.1364853 L10.8642578,15.8253589 L12.8601074,15.8253589 L19.4335938,25.4836693 C19.7082533,25.8843124 19.8852535,26.1590349 19.9645996,26.3078452 L20.0012207,26.3078452 C19.9401852,25.9529899 19.909668,25.3491727 19.909668,24.4963754 L19.909668,15.8253589 L21.4477539,15.8253589 L21.4477539,28.1364853 Z M31.8481445,28.1364853 L24.8901367,28.1364853 L24.8901367,15.8253589 L31.5551758,15.8253589 L31.5551758,17.1303039 L26.4282227,17.1303039 L26.4282227,21.2254276 L31.1706543,21.2254276 L31.1706543,22.5217875 L26.4282227,22.5217875 L26.4282227,26.8315402 L31.8481445,26.8315402 L31.8481445,28.1364853 Z M42.1386719,17.1303039 L38.3483887,17.1303039 L38.3483887,28.1364853 L36.8103027,28.1364853 L36.8103027,17.1303039 L33.0291748,17.1303039 L33.0291748,15.8253589 L42.1386719,15.8253589 L42.1386719,17.1303039 Z" id=".NET" fill="#FFFFFF" fill-rule="nonzero"></path>
            <path d="M19.9745942,38.4593055 C19.5961134,38.6657077 19.1248046,38.7689073 18.5606539,38.7689073 C17.8322567,38.7689073 17.2490716,38.5268797 16.8110812,38.0428173 C16.3730907,37.5587549 16.1540988,36.9235862 16.1540988,36.1372919 C16.1540988,35.2920257 16.4004647,34.6089428 16.893204,34.0880229 C17.3859432,33.5671029 18.0107844,33.3066469 18.7677461,33.3066469 C19.2533443,33.3066469 19.6556229,33.3791323 19.9745942,33.5241053 L19.9745942,34.183852 C19.6080153,33.9725354 19.2033563,33.8668787 18.760605,33.8668787 C18.1726505,33.8668787 17.6959859,34.0695922 17.3305971,34.4750251 C16.9652084,34.8804581 16.7825167,35.4222558 16.7825167,36.1004346 C16.7825167,36.744213 16.9533066,37.2571394 17.2948916,37.6392293 C17.6364765,38.0213191 18.0845769,38.2123612 18.6392061,38.2123612 C19.1533688,38.2123612 19.5984937,38.0944188 19.9745942,37.8585305 L19.9745942,38.4593055 Z M22.4668427,38.7689073 C21.9264958,38.7689073 21.4950578,38.592608 21.172516,38.2400042 C20.8499741,37.8874004 20.6887055,37.4199309 20.6887055,36.8375817 C20.6887055,36.203632 20.85652,35.7085198 21.192154,35.3522302 C21.527788,34.9959407 21.9812441,34.8177985 22.552536,34.8177985 C23.0976437,34.8177985 23.5231308,34.9910264 23.82901,35.3374873 C24.1348892,35.6839482 24.2878265,36.1643176 24.2878265,36.77861 C24.2878265,37.3806165 24.1229875,37.8628288 23.7933044,38.2252613 C23.4636214,38.5876937 23.0214719,38.7689073 22.4668427,38.7689073 Z M22.5096894,35.3264301 C22.1335889,35.3264301 21.8360455,35.458501 21.6170502,35.7226467 C21.398055,35.9867924 21.288559,36.3510623 21.288559,36.8154673 C21.288559,37.2626722 21.3992452,37.6152707 21.6206208,37.8732735 C21.8419964,38.1312763 22.1383496,38.2602757 22.5096894,38.2602757 C22.8881702,38.2602757 23.1791677,38.1337334 23.3826904,37.880645 C23.5862132,37.6275565 23.687973,37.2675866 23.687973,36.8007244 C23.687973,36.3289478 23.5862132,35.9652922 23.3826904,35.7097466 C23.1791677,35.454201 22.8881702,35.3264301 22.5096894,35.3264301 Z M27.1299895,35.5180883 C27.027633,35.4370017 26.8800515,35.3964591 26.6872405,35.3964591 C26.4373003,35.3964591 26.2284248,35.5180871 26.0606078,35.7613469 C25.8927908,36.0046067 25.8088836,36.3363196 25.8088836,36.7564956 L25.8088836,38.6804496 L25.2233123,38.6804496 L25.2233123,34.9062562 L25.8088836,34.9062562 L25.8088836,35.6839465 L25.8231658,35.6839465 C25.9064792,35.4185721 26.0338278,35.2115587 26.2052154,35.0629 C26.3766029,34.9142412 26.5682209,34.839913 26.780075,34.839913 C26.9324195,34.839913 27.0490565,34.8571129 27.1299895,34.8915133 L27.1299895,35.5180883 Z M30.7041166,36.9444681 L28.1226042,36.9444681 C28.1321257,37.3646441 28.2416217,37.6889856 28.4510954,37.9175023 C28.6605691,38.1460191 28.9485911,38.2602757 29.3151701,38.2602757 C29.7269763,38.2602757 30.1054515,38.1202192 30.450607,37.8401019 L30.450607,38.4077052 C30.1292553,38.6485078 29.7043634,38.7689073 29.1759184,38.7689073 C28.6593753,38.7689073 28.2535261,38.5975223 27.9583586,38.2547471 C27.6631911,37.911972 27.5156096,37.4297597 27.5156096,36.8080959 C27.5156096,36.2208324 27.6768781,35.7423058 27.99942,35.3725018 C28.3219619,35.0026978 28.7224553,34.8177985 29.2009123,34.8177985 C29.6793692,34.8177985 30.0495132,34.9775122 30.3113553,35.2969442 C30.5731975,35.6163762 30.7041166,36.0598887 30.7041166,36.6274948 L30.7041166,36.9444681 Z M30.1042631,36.4321508 C30.1018827,36.0832327 30.0203558,35.8117196 29.8596799,35.6176032 C29.6990041,35.4234868 29.4758465,35.3264301 29.1902006,35.3264301 C28.9140762,35.3264301 28.679612,35.4284011 28.486801,35.6323461 C28.2939899,35.8362912 28.1749726,36.1028901 28.1297453,36.4321508 L30.1042631,36.4321508 Z" id="Core" fill="#FFFFFF" fill-rule="nonzero"></path>
        </g>
    </g>
</svg>