<?xml version="1.0" encoding="UTF-8"?>
<svg width="50px" height="50px" viewBox="0 0 50 50" version="1.1" xmlns="http://www.w3.org/2000/svg" xmlns:xlink="http://www.w3.org/1999/xlink">
    <!-- Generator: Sketch 55.2 (78181) - https://sketchapp.com -->
    <title>2</title>
    <desc>Created with Sketch.</desc>
    <defs>
        <circle id="path-1" cx="25" cy="25" r="25"></circle>
    </defs>
    <g id="2" stroke="none" stroke-width="1" fill="none" fill-rule="evenodd">
        <g id="Group-71-Copy-4" transform="translate(0.000000, -0.000000)">
            <g id="Path-15-Copy-3">
                <mask id="mask-2" fill="white">
                    <use xlink:href="#path-1"></use>
                </mask>
                <use id="Mask" fill="#005BAB" xlink:href="#path-1"></use>
                <polygon id="Path-15-Copy-2" fill="#FFFFFF" opacity="0.068921" mask="url(#mask-2)" points="48.4375 45.4545455 -1.5625 0 -1.5625 50 46.0949705 50"></polygon>
            </g>
            <g id="Group-69" transform="translate(6.250000, 15.825359)" fill="#FFFFFF" fill-rule="nonzero">
                <path d="M0.923173506,12.5 C0.668121292,12.5 0.450498483,12.4055641 0.270298549,12.2166896 C0.0900986154,12.027815 0,11.8017412 0,11.5384615 C0,11.2751818 0.0900986154,11.0476772 0.270298549,10.8559409 C0.450498483,10.6642046 0.668121292,10.5683379 0.923173506,10.5683379 C1.18377033,10.5683379 1.40555154,10.6642046 1.58852378,10.8559409 C1.77149602,11.0476772 1.86298077,11.2751818 1.86298077,11.5384615 C1.86298077,11.8017412 1.77149602,12.027815 1.58852378,12.2166896 C1.40555154,12.4055641 1.18377033,12.5 0.923173506,12.5 Z M13.9390883,12.3111264 L12.2258113,12.3111264 L6.08795501,2.49828297 C5.93270584,2.25217368 5.80518165,1.99462131 5.70537861,1.72561813 L5.65547734,1.72561813 C5.69983424,1.98889784 5.72201236,2.55265136 5.72201236,3.4168956 L5.72201236,12.3111264 L4.32477679,12.3111264 L4.32477679,0 L6.13785628,0 L12.109375,9.65831044 C12.3588826,10.0589535 12.519674,10.333676 12.5917539,10.4824863 L12.6250215,10.4824863 C12.5695753,10.127631 12.5418527,9.52381379 12.5418527,8.67101648 L12.5418527,0 L13.9390883,0 L13.9390883,12.3111264 Z M23.3870622,12.3111264 L17.0662345,12.3111264 L17.0662345,0 L23.120922,0 L23.120922,1.30494505 L18.4634701,1.30494505 L18.4634701,5.40006868 L22.7716132,5.40006868 L22.7716132,6.69642857 L18.4634701,6.69642857 L18.4634701,11.0061813 L23.3870622,11.0061813 L23.3870622,12.3111264 Z M32.7352335,1.30494505 L29.2920458,1.30494505 L29.2920458,12.3111264 L27.8948103,12.3111264 L27.8948103,1.30494505 L24.4599395,1.30494505 L24.4599395,0 L32.7352335,0 L32.7352335,1.30494505 Z" id=".NET-Copy-2"></path>
                <path d="M16.2343598,22.5760773 L15.699234,22.5760773 L15.699234,19.3940587 C15.699234,19.1426714 15.7141875,18.8350573 15.7440949,18.4712072 L15.7312775,18.4712072 C15.6800077,18.6851069 15.6340792,18.8383627 15.5934906,18.9309791 L14.0233613,22.5760773 L13.7606049,22.5760773 L12.1936799,18.9574408 C12.1488188,18.8515935 12.1028904,18.6895172 12.055893,18.4712072 L12.0430757,18.4712072 C12.0601656,18.6608503 12.0687104,18.9706695 12.0687104,19.4006742 L12.0687104,22.5760773 L11.5496064,22.5760773 L11.5496064,17.8328188 L12.2609712,17.8328188 L13.6708833,21.1405305 C13.7798315,21.394123 13.8503264,21.5837632 13.8823701,21.7094569 L13.9015961,21.7094569 C13.9934545,21.4492489 14.0671537,21.2551985 14.122696,21.1272996 L15.5614472,17.8328188 L16.2343598,17.8328188 L16.2343598,22.5760773 Z M20.8582305,17.8328188 L19.156723,22.5760773 L18.5639191,22.5760773 L16.8976593,17.8328188 L17.496872,17.8328188 L18.7689972,21.593687 C18.8095858,21.7149703 18.8405608,21.8549954 18.8619232,22.0137664 L18.8747406,22.0137664 C18.8918305,21.8814572 18.927078,21.739227 18.980484,21.5870715 L20.278244,17.8328188 L20.8582305,17.8328188 Z M24.4855498,22.3776146 C24.1458875,22.5628474 23.7229181,22.6554624 23.2166289,22.6554624 C22.5629392,22.6554624 22.0395679,22.4382582 21.6464996,22.0038432 C21.2534312,21.5694282 21.0569,20.999405 21.0569,20.2937563 C21.0569,19.535184 21.2779976,18.9221609 21.7201995,18.4546686 C22.1624014,17.9871764 22.7231563,17.7534338 23.402481,17.7534338 C23.8382742,17.7534338 24.1992935,17.8184848 24.4855498,17.9485887 L24.4855498,18.5406691 C24.1565687,18.351026 23.7934131,18.2562059 23.3960723,18.2562059 C22.8684207,18.2562059 22.4406449,18.4381283 22.1127319,18.8019784 C21.7848189,19.1658284 21.6208648,19.6520572 21.6208648,20.2606792 C21.6208648,20.838429 21.7741378,21.2987476 22.0806884,21.6416488 C22.387239,21.9845499 22.7893804,22.155998 23.2871245,22.155998 C23.7485526,22.155998 24.1480237,22.0501522 24.4855498,21.8384576 L24.4855498,22.3776146 Z" id="MVC-Copy"></path>
            </g>
        </g>
    </g>
</svg>