<?xml version="1.0" encoding="UTF-8"?>
<svg width="50px" height="50px" viewBox="0 0 50 50" version="1.1" xmlns="http://www.w3.org/2000/svg" xmlns:xlink="http://www.w3.org/1999/xlink">
    <!-- Generator: Sketch 55.2 (78181) - https://sketchapp.com -->
    <title>12</title>
    <desc>Created with Sketch.</desc>
    <defs>
        <circle id="path-1" cx="25" cy="25" r="25"></circle>
    </defs>
    <g id="12" stroke="none" stroke-width="1" fill="none" fill-rule="evenodd">
        <g id="Group-2-Copy-2">
            <mask id="mask-2" fill="white">
                <use xlink:href="#path-1"></use>
            </mask>
            <use id="Mask" fill="#007ACC" xlink:href="#path-1"></use>
            <polygon id="Path-15-Copy-4" fill="#FFFFFF" opacity="0.068921" mask="url(#mask-2)" points="40 42.6363636 -19 -11 -19 48 37.2358152 48"></polygon>
            <g id="Group" mask="url(#mask-2)" fill="#FFFFFF" fill-rule="nonzero">
                <g transform="translate(11.464619, 16.038477)" id="Path">
                    <path d="M13.5192379,15.957333 L13.5314282,14.3847617 L11.0323807,14.3847617 L8.53333322,14.3847617 L8.53333322,7.28380936 L8.53333322,0.182857221 L6.76571421,0.182857221 L4.99809514,0.182857221 L4.99809514,7.28380936 L4.99809514,14.3847617 L2.49904757,14.3847617 L3.83693077e-13,14.3847617 L3.83693077e-13,15.9268569 C3.83693077e-13,16.78019 0.0182857196,17.4933329 0.042666674,17.5116187 C0.0609523936,17.5359997 3.10247612,17.54819 6.79009506,17.5420949 L13.5009521,17.5238092 L13.5192379,15.957333 Z" transform="translate(6.765714, 8.863253) rotate(-180.000000) translate(-6.765714, -8.863253) "></path>
                    <path d="M22.5055123,17.5826252 C23.4807505,17.3388157 24.2243695,16.9060537 24.9070361,16.1990062 C25.26056,15.8211014 25.7847504,15.1323396 25.827417,14.9677681 C25.8396075,14.9190061 24.1695124,13.7974824 23.1577028,13.1696728 C23.1211313,13.1452918 22.9748456,13.303768 22.8102742,13.5475776 C22.31656,14.2668157 21.7984648,14.5776729 21.0060838,14.63253 C19.8418934,14.7117681 19.0921791,14.1022443 19.0982744,13.0843395 C19.0982744,12.7856729 19.140941,12.6089109 19.2628458,12.3651015 C19.5188457,11.8348157 19.9942743,11.5178634 21.4876077,10.8717681 C24.23656,9.68929192 25.4129409,8.90910159 26.1443694,7.79976822 C26.9611312,6.56243489 27.1439884,4.58757784 26.5893218,3.11862547 C25.979798,1.52167316 24.468179,0.43672078 22.340941,0.0771017881 C21.6826552,-0.0387078093 20.1222743,-0.0204220597 19.4152268,0.107577887 C17.8731316,0.381863681 16.4102744,1.14376841 15.5081793,2.14338744 C15.1546554,2.53348268 14.4658935,3.55138731 14.5085602,3.62453016 C14.5268458,3.64891116 14.685322,3.74643501 14.862084,3.85005395 C15.0327507,3.9475778 15.6788458,4.31938729 16.2883696,4.67291119 L17.3916077,5.31291107 L17.6232268,4.97157783 C17.9462744,4.47786349 18.653322,3.8012921 19.0799886,3.57576831 C20.3051314,2.92967302 21.9874171,3.02110162 22.8163694,3.76472076 C23.1698933,4.08776825 23.316179,4.42300639 23.316179,4.91672073 C23.316179,5.36167307 23.2613219,5.55672062 23.0297029,5.89195876 C22.7310361,6.31862535 22.1215123,6.67824449 20.3904648,7.42795872 C18.4095125,8.28129205 17.5561792,8.81157774 16.7759887,9.65272057 C16.3249411,10.1403397 15.8982743,10.92053 15.7215125,11.5727205 C15.5752269,12.1151967 15.5386554,13.4744347 15.654465,14.0230062 C16.0628458,15.9369109 17.5074172,17.2717681 19.5919886,17.6679585 C20.2685601,17.7959585 21.8411314,17.7471965 22.5055123,17.5826252 Z" transform="translate(20.707294, 8.870340) scale(-1, 1) rotate(-180.000000) translate(-20.707294, -8.870340) "></path>
                </g>
            </g>
        </g>
    </g>
</svg>