<?xml version="1.0" encoding="UTF-8"?>
<svg width="178px" height="52px" viewBox="0 0 178 52" version="1.1" xmlns="http://www.w3.org/2000/svg" xmlns:xlink="http://www.w3.org/1999/xlink">
    <!-- Generator: Sketch 55.2 (78181) - https://sketchapp.com -->
    <title> </title>
    <desc>Created with Sketch.</desc>
    <g id="-" stroke="none" stroke-width="1" fill="none" fill-rule="evenodd">
        <g id="ej-2-logo-final-copy-2" transform="translate(1.000000, 1.000000)" fill-rule="nonzero">
            <path d="M141.514515,45.875 L129.963713,34.4204545 C124.715432,29.2159091 124.715432,20.7784091 129.963713,15.5795455 L141.514515,4.125 C146.762796,-1.07954545 155.271199,-1.07954545 160.513751,4.125 L172.064553,15.5795455 C177.312834,20.7840909 177.312834,29.2215909 172.064553,34.4204545 L160.513751,45.875 C155.26547,51.0795455 146.757066,51.0795455 141.514515,45.875 Z" id="Path" fill="#FAE000"></path>
            <g id="Group" transform="translate(0.000000, 13.636364)" fill="#000060">
                <path d="M13.0576776,18.5397727 C13.3899924,18.8693182 13.5618793,19.2556818 13.5618793,19.6875 C13.5618793,20.1590909 13.3957219,20.5511364 13.0576776,20.8522727 C12.7253629,21.1534091 12.3071047,21.3068182 11.8143621,21.3068182 L2.21734148,21.3068182 C1.71886937,21.3068182 1.30634072,21.1420455 0.968296409,20.8068182 C0.635981665,20.4772727 0.469824293,20.0625 0.469824293,19.5738636 L0.469824293,3.15340909 C0.469824293,2.65909091 0.635981665,2.25 0.968296409,1.91477273 C1.30061115,1.58522727 1.71886937,1.42045455 2.21734148,1.42045455 L11.8143621,1.42045455 C12.3128342,1.42045455 12.7253629,1.57386364 13.0576776,1.89204545 C13.3899924,2.20454545 13.5618793,2.60795455 13.5618793,3.09659091 C13.5618793,3.56818182 13.4014515,3.95454545 13.0748663,4.24431818 C12.7482811,4.53977273 12.3300229,4.6875 11.8143621,4.6875 L4.05080214,4.6875 L4.05080214,9.51704545 L10.5252101,9.51704545 C11.0236822,9.51704545 11.4362108,9.67045455 11.7742552,9.98295455 C12.1065699,10.2954545 12.2784568,10.6988636 12.2784568,11.1875 C12.2784568,11.6590909 12.118029,12.0454545 11.7914439,12.3409091 C11.4648587,12.6363636 11.0466005,12.7840909 10.5309396,12.7840909 L4.05080214,12.7840909 L4.05080214,18.0397727 L11.8143621,18.0397727 C12.3128342,18.0397727 12.7253629,18.2045455 13.0576776,18.5397727 Z" id="Path"></path>
                <path d="M15.4239878,18.0965909 C15.4239878,17.6022727 15.6703591,17.1875 16.1688312,16.8465909 C16.4381207,16.6761364 16.7131398,16.5909091 16.999618,16.5909091 C17.4006875,16.5909091 17.7845684,16.7727273 18.1455309,17.1306818 C18.7184874,17.7159091 19.3143621,18.1534091 19.9331551,18.4375 C20.5519481,18.7215909 21.302521,18.8636364 22.1791444,18.8636364 C23.6688312,18.8068182 24.4136746,18.25 24.4136746,17.1875 C24.4136746,16.6420455 24.1615737,16.2215909 23.657372,15.9375 C23.1531704,15.6534091 22.3624905,15.3693182 21.2967914,15.0852273 C20.1909855,14.7840909 19.2857143,14.4772727 18.5867074,14.1761364 C17.8877005,13.875 17.2860963,13.4147727 16.7818946,12.7954545 C16.2776929,12.1818182 16.0255921,11.3522727 16.0255921,10.3068182 C16.0255921,9.39772727 16.289152,8.60795455 16.8105424,7.9375 C17.3376623,7.26704545 18.0252101,6.74431818 18.8731856,6.375 C19.7211612,6.00568182 20.6264324,5.82386364 21.5775401,5.82386364 C22.5515661,5.82386364 23.5255921,6.00568182 24.499618,6.36363636 C25.473644,6.72159091 26.2356761,7.25568182 26.7914439,7.95454545 C27.0378151,8.25568182 27.1638655,8.59659091 27.1638655,8.97727273 C27.1638655,9.41477273 26.9805195,9.77272727 26.6195569,10.0568182 C26.3502674,10.2670455 26.0466005,10.3693182 25.7028266,10.3693182 C25.2788388,10.3693182 24.9407945,10.2386364 24.671505,9.97159091 C24.3277311,9.55681818 23.8808251,9.22159091 23.3365164,8.97727273 C22.7922078,8.73295455 22.1734148,8.60795455 21.4858671,8.60795455 C20.0362872,8.60795455 19.3086325,9.13068182 19.3086325,10.1704545 C19.3086325,10.5909091 19.4404125,10.9261364 19.7097021,11.1818182 C19.9789916,11.4375 20.3170359,11.6363636 20.7295646,11.7784091 C21.1420932,11.9204545 21.7150497,12.0965909 22.459893,12.3011364 C23.4912147,12.5852273 24.3506494,12.8806818 25.0381971,13.1818182 C25.7257448,13.4829545 26.3101604,13.9488636 26.7857143,14.5738636 C27.2612681,15.1988636 27.5019099,16.0227273 27.5019099,17.0454545 C27.5019099,17.9772727 27.2211612,18.7840909 26.671123,19.4772727 C26.1153552,20.1704545 25.4048892,20.6931818 24.5339954,21.0568182 C23.6745607,21.4090909 22.7864782,21.5909091 21.8697479,21.5909091 C20.6092437,21.5909091 19.434683,21.3806818 18.3460657,20.9659091 C17.2574484,20.5511364 16.3693659,19.875 15.6818182,18.9488636 C15.5099312,18.7215909 15.4239878,18.4375 15.4239878,18.0965909 Z" id="Path"></path>
                <path d="M29.2322383,18.0965909 C29.2322383,17.6022727 29.4786096,17.1875 29.9770817,16.8465909 C30.2463713,16.6761364 30.5213904,16.5909091 30.8078686,16.5909091 C31.2089381,16.5909091 31.5928189,16.7727273 31.9537815,17.1306818 C32.526738,17.7159091 33.1226127,18.1534091 33.7414057,18.4375 C34.3601986,18.7215909 35.1107716,18.8636364 35.987395,18.8636364 C37.4770817,18.8068182 38.2219251,18.25 38.2219251,17.1875 C38.2219251,16.6420455 37.9698243,16.2215909 37.4656226,15.9375 C36.9614209,15.6534091 36.170741,15.3693182 35.105042,15.0852273 C33.9992361,14.7840909 33.0939649,14.4772727 32.394958,14.1761364 C31.6959511,13.875 31.0943468,13.4147727 30.5901451,12.7954545 C30.0859435,12.1818182 29.8338426,11.3522727 29.8338426,10.3068182 C29.8338426,9.39772727 30.0974026,8.60795455 30.618793,7.9375 C31.1459129,7.26704545 31.8334607,6.74431818 32.6814362,6.375 C33.5294118,6.00568182 34.434683,5.82386364 35.3857907,5.82386364 C36.3598167,5.82386364 37.3338426,6.00568182 38.3078686,6.36363636 C39.2818946,6.72159091 40.0439267,7.25568182 40.5996944,7.95454545 C40.8460657,8.25568182 40.9721161,8.59659091 40.9721161,8.97727273 C40.9721161,9.41477273 40.7887701,9.77272727 40.4278075,10.0568182 C40.158518,10.2670455 39.854851,10.3693182 39.5110772,10.3693182 C39.0870894,10.3693182 38.7490451,10.2386364 38.4797555,9.97159091 C38.1359817,9.55681818 37.6890756,9.22159091 37.144767,8.97727273 C36.6004584,8.73295455 35.9816654,8.60795455 35.2941176,8.60795455 C33.8445378,8.60795455 33.1168831,9.13068182 33.1168831,10.1704545 C33.1168831,10.5909091 33.2486631,10.9261364 33.5179526,11.1818182 C33.7872422,11.4375 34.1252865,11.6363636 34.5378151,11.7784091 C34.9503438,11.9204545 35.5233002,12.0965909 36.2681436,12.3011364 C37.2994652,12.5852273 38.1588999,12.8806818 38.8464477,13.1818182 C39.5339954,13.4829545 40.118411,13.9488636 40.5939649,14.5738636 C41.0695187,15.1988636 41.3101604,16.0227273 41.3101604,17.0454545 C41.3101604,17.9772727 41.0294118,18.7840909 40.4793736,19.4772727 C39.9236058,20.1704545 39.2131398,20.6931818 38.342246,21.0568182 C37.4828113,21.4090909 36.5947288,21.5909091 35.6779985,21.5909091 C34.4174943,21.5909091 33.2429335,21.3806818 32.1543163,20.9659091 C31.065699,20.5511364 30.1776165,19.875 29.4900688,18.9488636 C29.3181818,18.7215909 29.2322383,18.4375 29.2322383,18.0965909 Z" id="Path"></path>
                <path d="M57.3930481,14.4602273 C57.0492743,14.7443182 56.6482047,14.8863636 56.1898396,14.8863636 L46.7360581,14.8863636 C46.9652406,16.0056818 47.4923606,16.8806818 48.3116883,17.5170455 C49.131016,18.1534091 50.0592055,18.4715909 51.0905271,18.4715909 C51.8697479,18.4715909 52.4828113,18.3977273 52.9239878,18.2556818 C53.3651642,18.1136364 53.7146677,17.9602273 53.9667685,17.8011364 C54.2245989,17.6420455 54.4022154,17.5284091 54.4938885,17.4715909 C54.8376623,17.3011364 55.1642475,17.2159091 55.4679144,17.2159091 C55.868984,17.2159091 56.2127578,17.3579545 56.4992361,17.6420455 C56.7857143,17.9261364 56.9289534,18.2613636 56.9289534,18.6363636 C56.9289534,19.1477273 56.6596639,19.6136364 56.1268144,20.0284091 C55.5939649,20.4659091 54.8777693,20.8352273 53.9782277,21.1363636 C53.078686,21.4375 52.1734148,21.5909091 51.2566845,21.5909091 C49.6524064,21.5909091 48.2543927,21.2613636 47.0626432,20.5965909 C45.8708938,19.9318182 44.9484339,19.0227273 44.3009931,17.8579545 C43.6478228,16.6931818 43.3269672,15.3806818 43.3269672,13.9261364 C43.3269672,12.2954545 43.670741,10.8693182 44.3582888,9.63636364 C45.0458365,8.40340909 45.9511077,7.46590909 47.0798319,6.8125 C48.2085561,6.15909091 49.4060351,5.83522727 50.6894576,5.83522727 C51.9499618,5.83522727 53.1417112,6.17613636 54.2589763,6.85795455 C55.3762414,7.53977273 56.2700535,8.46022727 56.9404125,9.61363636 C57.6107716,10.7670455 57.9430863,12.0170455 57.9430863,13.3636364 C57.9144385,13.8068182 57.736822,14.1761364 57.3930481,14.4602273 Z M46.7647059,12.0454545 L54.2704354,12.0454545 L54.2704354,11.8465909 C54.1959511,11.0511364 53.8063407,10.3693182 53.0958747,9.80113636 C52.3854087,9.23295455 51.5889992,8.94886364 50.6894576,8.94886364 C48.4721161,8.94886364 47.1657754,9.98295455 46.7647059,12.0454545 Z" id="Shape"></path>
                <path d="M73.0347594,7.54545455 C73.7796028,8.69318182 74.1520244,10.2784091 74.1520244,12.3011364 L74.1520244,19.5738636 C74.1520244,20.0681818 73.9915966,20.4772727 73.6650115,20.8068182 C73.3384263,21.1420455 72.9316272,21.3068182 72.4331551,21.3068182 C71.934683,21.3068182 71.5278839,21.1420455 71.2012987,20.8068182 C70.8747135,20.4772727 70.7142857,20.0625 70.7142857,19.5738636 L70.7142857,12.3011364 C70.7142857,11.2613636 70.4965623,10.4431818 70.0553858,9.84659091 C69.6142093,9.25 68.8636364,8.95454545 67.7922078,8.95454545 C66.6864018,8.95454545 65.815508,9.27272727 65.1852559,9.90909091 C64.5550038,10.5454545 64.2398778,11.3409091 64.2398778,12.3068182 L64.2398778,19.5795455 C64.2398778,20.0738636 64.07945,20.4829545 63.7528648,20.8125 C63.4262796,21.1477273 63.0194805,21.3125 62.5210084,21.3125 C62.0225363,21.3125 61.6157372,21.1477273 61.289152,20.8125 C60.9625668,20.4829545 60.802139,20.0681818 60.802139,19.5795455 L60.802139,7.84090909 C60.802139,7.34659091 60.9625668,6.9375 61.289152,6.60227273 C61.6157372,6.27272727 62.0225363,6.10795455 62.5210084,6.10795455 C63.0194805,6.10795455 63.4262796,6.27272727 63.7528648,6.60227273 C64.07945,6.9375 64.2398778,7.34659091 64.2398778,7.84090909 L64.2398778,8.32386364 C64.7555386,7.64204545 65.4316272,7.05681818 66.2566845,6.5625 C67.0874714,6.06818182 67.9984721,5.82386364 68.9954163,5.82386364 C70.9434683,5.82386364 72.289916,6.39772727 73.0347594,7.54545455 Z" id="Path"></path>
                <path d="M85.9950344,18.4829545 C86.2127578,18.7386364 86.3216196,19.0738636 86.3216196,19.4886364 C86.3216196,20 86.0408709,20.4318182 85.4793736,20.7840909 C84.9178762,21.1363636 84.2818946,21.3068182 83.5771581,21.3068182 C82.3911383,21.3068182 81.394194,21.0568182 80.5805959,20.5568182 C79.7669977,20.0568182 79.3659282,18.9886364 79.3659282,17.3636364 L79.3659282,9.52272727 L78.0481283,9.52272727 C77.5897632,9.52272727 77.2058824,9.36931818 76.9022154,9.06818182 C76.5985485,8.76704545 76.4438503,8.38636364 76.4438503,7.93181818 C76.4438503,7.49431818 76.5985485,7.13068182 76.9022154,6.83522727 C77.2058824,6.53977273 77.5897632,6.39204545 78.0481283,6.39204545 L79.3659282,6.39204545 L79.3659282,4.57386364 C79.3659282,4.07954545 79.5320856,3.67045455 79.8701299,3.33522727 C80.2024446,3.00568182 80.6207028,2.83522727 81.1191749,2.83522727 C81.5947288,2.83522727 81.9957983,3 82.3223835,3.33522727 C82.6432391,3.66477273 82.8093965,4.07954545 82.8093965,4.57386364 L82.8093965,6.39204545 L84.8433919,6.39204545 C85.3017571,6.39204545 85.6799083,6.54545455 85.9893048,6.84659091 C86.2929717,7.14772727 86.44767,7.52840909 86.44767,7.98295455 C86.44767,8.42045455 86.2929717,8.78409091 85.9893048,9.07954545 C85.6856379,9.375 85.3017571,9.52272727 84.8433919,9.52272727 L82.8093965,9.52272727 L82.8093965,17.2159091 C82.8093965,17.6136364 82.9125286,17.9034091 83.1245225,18.0795455 C83.3365164,18.2613636 83.6229947,18.3522727 83.9839572,18.3522727 C84.1386555,18.3522727 84.3449198,18.3125 84.6142093,18.2386364 C84.8433919,18.1420455 85.0611154,18.0965909 85.2731092,18.0965909 C85.5309396,18.0965909 85.7715814,18.2215909 85.9950344,18.4829545 Z" id="Path"></path>
                <path d="M89.7077922,3.94886364 C89.4385027,3.73863636 89.3067227,3.36931818 89.3067227,2.84090909 L89.3067227,2.30113636 C89.3067227,1.77272727 89.4499618,1.40340909 89.73644,1.19318182 C90.0229183,0.982954545 90.4812834,0.880681818 91.1115355,0.880681818 C91.7818946,0.880681818 92.2459893,0.982954545 92.5152788,1.19318182 C92.7845684,1.40340909 92.9163484,1.77272727 92.9163484,2.30113636 L92.9163484,2.84090909 C92.9163484,3.39204545 92.7788388,3.76704545 92.4980901,3.96590909 C92.223071,4.16477273 91.7475172,4.26136364 91.0828877,4.26136364 C90.4297173,4.26136364 89.9713522,4.15909091 89.7077922,3.94886364 Z M92.3376623,20.8068182 C92.0110772,21.1420455 91.6042781,21.3068182 91.105806,21.3068182 C90.6073338,21.3068182 90.2005348,21.1420455 89.8739496,20.8068182 C89.5473644,20.4772727 89.3869366,20.0625 89.3869366,19.5738636 L89.3869366,7.84090909 C89.3869366,7.34659091 89.5473644,6.9375 89.8739496,6.60227273 C90.2005348,6.27272727 90.6073338,6.10795455 91.105806,6.10795455 C91.5985485,6.10795455 92.0110772,6.27272727 92.3376623,6.60227273 C92.6642475,6.9375 92.8246753,7.34659091 92.8246753,7.84090909 L92.8246753,19.5738636 C92.8304049,20.0681818 92.6642475,20.4772727 92.3376623,20.8068182 Z" id="Shape"></path>
                <path d="M109.990451,6.30681818 C110.317036,6.63068182 110.477464,7.04545455 110.477464,7.55681818 L110.477464,19.5738636 C110.477464,20.0681818 110.317036,20.4772727 109.990451,20.8068182 C109.663866,21.1420455 109.257066,21.3068182 108.758594,21.3068182 C108.260122,21.3068182 107.859053,21.1477273 107.543927,20.8238636 C107.228801,20.5056818 107.062643,20.0965909 107.039725,19.6022727 C106.564171,20.1534091 105.91673,20.6193182 105.108862,21.0056818 C104.295264,21.3920455 103.441558,21.5909091 102.542017,21.5909091 C101.224217,21.5909091 100.032468,21.2556818 98.961039,20.5795455 C97.8896104,19.9090909 97.0473644,18.9772727 96.4228419,17.7784091 C95.8040489,16.5852273 95.4946524,15.2329545 95.4946524,13.7159091 C95.4946524,12.2045455 95.7983193,10.8409091 96.4113827,9.64204545 C97.0244461,8.44318182 97.855233,7.5 98.920932,6.82954545 C99.9809015,6.15909091 101.149733,5.82386364 102.427426,5.82386364 C103.344156,5.82386364 104.203591,5.98863636 105.00573,6.31818182 C105.807869,6.65340909 106.483957,7.07386364 107.039725,7.58522727 L107.039725,7.55681818 C107.039725,7.0625 107.200153,6.65340909 107.526738,6.31818182 C107.853323,5.98863636 108.260122,5.82386364 108.758594,5.82386364 C109.257066,5.82386364 109.663866,5.98295455 109.990451,6.30681818 Z M106.008403,17.1136364 C106.787624,16.2159091 107.182964,15.0852273 107.182964,13.7159091 C107.182964,12.3522727 106.793354,11.2159091 106.008403,10.3068182 C105.223453,9.39772727 104.21505,8.94318182 102.971734,8.94318182 C101.751337,8.94318182 100.748663,9.39772727 99.9637128,10.3068182 C99.1787624,11.2159091 98.789152,12.3522727 98.789152,13.7159091 C98.789152,15.0795455 99.1730328,16.2102273 99.9465241,17.1136364 C100.720015,18.0113636 101.728419,18.4659091 102.971734,18.4659091 C104.21505,18.4659091 105.223453,18.0170455 106.008403,17.1136364 Z" id="Shape"></path>
                <path d="M117.421696,20.8068182 C117.089381,21.1420455 116.671123,21.3068182 116.17838,21.3068182 C115.702827,21.3068182 115.296028,21.1420455 114.975172,20.8068182 C114.648587,20.4772727 114.488159,20.0625 114.488159,19.5738636 L114.488159,2.01704545 C114.488159,1.52272727 114.654316,1.11363636 114.992361,0.784090909 C115.324675,0.454545455 115.742934,0.284090909 116.235676,0.284090909 C116.71123,0.284090909 117.118029,0.448863636 117.438885,0.784090909 C117.75974,1.11363636 117.925898,1.52840909 117.925898,2.01704545 L117.925898,19.5738636 C117.920168,20.0681818 117.754011,20.4772727 117.421696,20.8068182 Z" id="Path"></path>
            </g>
            <g id="Group" transform="translate(134.071811, 17.613636)" fill="#000060">
                <g id="Path">
                    <path d="M1.93086325,14.25 C1.2605042,13.9318182 0.710466005,13.4829545 0.286478228,12.9147727 C0.120320856,12.6704545 0.0401069519,12.4318182 0.0401069519,12.1988636 C0.0401069519,11.875 0.171886937,11.5909091 0.429717341,11.3522727 C0.687547746,11.1136364 0.95683728,10.9943182 1.23185638,10.9943182 C1.58708938,10.9943182 1.97097021,11.1988636 2.38349885,11.6079545 C2.64132926,11.8522727 2.91061879,12.0284091 3.18563789,12.1306818 C3.46065699,12.2329545 3.77005348,12.2840909 4.10809778,12.2840909 C4.50343774,12.2840909 4.88731856,12.1818182 5.24828113,11.9772727 C5.6092437,11.7727273 5.90145149,11.5 6.11917494,11.1534091 C6.3368984,10.8068182 6.44576012,10.4431818 6.44576012,10.0625 L6.44576012,1.49431818 C6.44576012,1.14204545 6.57754011,0.846590909 6.83537051,0.607954545 C7.09893048,0.369318182 7.39686784,0.25 7.74064171,0.25 C8.12452254,0.25 8.43391902,0.363636364 8.66883117,0.596590909 C8.90374332,0.829545455 9.01833461,1.125 9.01833461,1.49431818 L9.01833461,10.0568182 C9.01833461,10.8693182 8.80061115,11.6420455 8.35943468,12.3579545 C7.91825821,13.0795455 7.3223835,13.6534091 6.57181054,14.0795455 C5.82123759,14.5056818 4.99618029,14.7215909 4.10236822,14.7215909 C3.32887701,14.7272727 2.60122231,14.5681818 1.93086325,14.25 Z"></path>
                    <path d="M14.1004584,14.3636364 C13.3326967,14.1193182 12.6107716,13.7045455 11.9404125,13.1193182 C11.5679908,12.7897727 11.3846448,12.4318182 11.3846448,12.0397727 C11.3846448,11.7272727 11.4992361,11.4545455 11.7341482,11.2159091 C11.9690604,10.9772727 12.249809,10.8579545 12.5763942,10.8579545 C12.8342246,10.8579545 13.0691367,10.9375 13.2754011,11.1022727 C13.8254393,11.5511364 14.3582888,11.875 14.8796791,12.0795455 C15.4010695,12.2840909 16.0141329,12.3863636 16.7303285,12.3863636 C17.4980901,12.3863636 18.1627196,12.2159091 18.7127578,11.875 C19.2685256,11.5340909 19.5435447,11.1136364 19.5435447,10.6079545 C19.5435447,9.99431818 19.2685256,9.51704545 18.7184874,9.17045455 C18.1684492,8.82386364 17.2975554,8.5625 16.105806,8.38636364 C13.1035141,7.95454545 11.6023682,6.56818182 11.6023682,4.22727273 C11.6023682,3.36931818 11.8258212,2.625 12.2784568,1.99431818 C12.7310924,1.36363636 13.3498854,0.880681818 14.1291062,0.545454545 C14.908327,0.210227273 15.7792208,0.0454545455 16.7417876,0.0454545455 C17.6069519,0.0454545455 18.4148205,0.176136364 19.1768526,0.431818182 C19.9388846,0.6875 20.5691367,1.02840909 21.079068,1.44886364 C21.4744079,1.76136364 21.6749427,2.125 21.6749427,2.52840909 C21.6749427,2.84090909 21.5603514,3.11931818 21.3254393,3.35227273 C21.0905271,3.59090909 20.815508,3.71022727 20.5061115,3.71022727 C20.2998472,3.71022727 20.1165011,3.64772727 19.9503438,3.52840909 C19.5951108,3.24431818 19.0966387,2.98295455 18.460657,2.74431818 C17.8246753,2.50568182 17.2517189,2.38636364 16.7417876,2.38636364 C15.8766234,2.38636364 15.2119939,2.54545455 14.73644,2.86363636 C14.2608862,3.18181818 14.025974,3.60227273 14.025974,4.11931818 C14.025974,4.70454545 14.2666157,5.14772727 14.7536287,5.44318182 C15.2406417,5.74431818 16.0026738,5.98863636 17.0454545,6.17613636 C18.2257448,6.38068182 19.1653934,6.64204545 19.8758594,6.96022727 C20.5805959,7.27840909 21.1134454,7.71590909 21.4686784,8.26704545 C21.8239114,8.81818182 22.0015279,9.55113636 22.0015279,10.4602273 C22.0015279,11.3181818 21.7608862,12.0681818 21.2738732,12.7159091 C20.7868602,13.3636364 20.1394194,13.8579545 19.3315508,14.2045455 C18.5236822,14.5511364 17.6527884,14.7272727 16.7188694,14.7272727 C15.750573,14.7272727 14.8739496,14.6079545 14.1004584,14.3636364 Z"></path>
                </g>
                <path d="M33.0939649,12.7840909 C33.3174179,13.0056818 33.4262796,13.2784091 33.4262796,13.6136364 C33.4262796,13.9318182 33.3174179,14.1988636 33.0939649,14.4090909 C32.8705118,14.625 32.5954927,14.7329545 32.2574484,14.7329545 L25.1642475,14.7329545 C24.803285,14.7329545 24.5168067,14.6193182 24.3105424,14.4034091 C24.0985485,14.1818182 23.9954163,13.8977273 23.9954163,13.5568182 C23.9954163,13.2159091 24.1214668,12.9090909 24.367838,12.6477273 L28.9171123,7.82954545 C29.4327731,7.27840909 29.8395722,6.72159091 30.1375095,6.16477273 C30.4354469,5.60795455 30.5844156,5.09090909 30.5844156,4.625 C30.5844156,4.00568182 30.3609626,3.46590909 29.9140565,3.01136364 C29.4728801,2.55681818 28.9572193,2.32954545 28.3728037,2.32954545 C27.9717341,2.32954545 27.5649351,2.46590909 27.1524064,2.73295455 C26.7456073,3 26.3674561,3.35795455 26.0351413,3.79545455 C25.7887701,4.125 25.4621849,4.28977273 25.078304,4.28977273 C24.7746371,4.28977273 24.4938885,4.17045455 24.2360581,3.9375 C23.9782277,3.70454545 23.8464477,3.44318182 23.8464477,3.15340909 C23.8464477,2.94318182 23.9152024,2.73295455 24.0584416,2.52272727 C24.1959511,2.3125 24.4022154,2.0625 24.6829641,1.78977273 C25.210084,1.26704545 25.8231474,0.846590909 26.5164248,0.528409091 C27.2097021,0.210227273 27.8800611,0.0511363636 28.5160428,0.0511363636 C29.4327731,0.0511363636 30.2406417,0.244318182 30.933919,0.630681818 C31.6271963,1.01704545 32.1657754,1.54545455 32.5381971,2.22159091 C32.9163484,2.89772727 33.0996944,3.65909091 33.0996944,4.51704545 C33.0996944,5.35795455 32.8762414,6.22159091 32.4236058,7.11363636 C31.9709702,8 31.3636364,8.85227273 30.5958747,9.66477273 L27.9488159,12.4602273 L32.2459893,12.4602273 C32.5954927,12.4545455 32.8705118,12.5625 33.0939649,12.7840909 Z" id="Path"></path>
            </g>
        </g>
    </g>
</svg>