<?xml version="1.0" encoding="utf-8"?>
<!-- Generator: Adobe Illustrator 22.1.0, SVG Export Plug-In . SVG Version: 6.00 Build 0)  -->
<svg version="1.1" id="Layer_1" xmlns="http://www.w3.org/2000/svg" xmlns:xlink="http://www.w3.org/1999/xlink" x="0px" y="0px"
	 viewBox="0 0 50 12" style="enable-background:new 0 0 50 12;" xml:space="preserve">
<style type="text/css">
	.st0{fill:#0058FF;}
	.st1{fill:#FFFFFF;}
</style>
<polygon class="st0" points="50,12 0,12 5,0 50,0 "/>
<rect x="32" y="3" class="st1" width="1" height="7"/>
<path class="st1" d="M11,3H9v7h1V7h1c1.1,0,2-0.9,2-2S12.1,3,11,3z M11,6h-1V4h1c0.6,0,1,0.4,1,1S11.6,6,11,6z"/>
<polygon class="st1" points="24,4 24,3 20,3 20,10 24,10 24,9 21,9 21,7 24,7 24,6 21,6 21,4 "/>
<polygon class="st1" points="39,4 39,3 35,3 35,10 39,10 39,9 36,9 36,7 39,7 39,6 36,6 36,4 "/>
<path class="st1" d="M14,3v7h1V7.6l2.2,2.4h1.4l-2.7-3h0.4c1,0,1.8-0.8,1.8-1.8V4.8c0-1-0.8-1.8-1.8-1.8H14z M17,4.8v0.3
	C17,5.6,16.6,6,16.2,6H15V4h1.2C16.6,4,17,4.4,17,4.8z"/>
<polygon class="st1" points="29.5,3 27.8,7.8 26.1,3 25,3 27.5,10 28.1,10 30.6,3 "/>
<polygon class="st1" points="45.4,3 44.7,6.8 43.8,3 42.6,3 41.6,7.1 40.7,3 39.7,3 41.2,10 41.9,10 43.2,4.7 44.5,10 45.2,10 
	46.4,3 "/>
</svg>
